{
	"asset":{
		"generator":"Khronos glTF Blender I/O v3.5.30",
		"version":"2.0"
	},
	"scene":0,
	"scenes":[
		{
			"name":"Scene",
			"nodes":[
				3
			]
		}
	],
	"nodes":[
		{
			"name":"Bone.001",
			"rotation":[
				0,
				1.1920927533992653e-07,
				0,
				1
			],
			"scale":[
				1,
				0.9999999403953552,
				1
			],
			"translation":[
				0,
				1,
				0
			]
		},
		{
			"children":[
				0
			],
			"name":"Bone"
		},
		{
			"mesh":0,
			"name":"\u5e73\u9762",
			"skin":0
		},
		{
			"children":[
				2,
				1
			],
			"name":"Armor",
			"translation":[
				0,
				-0.9824930429458618,
				0
			]
		}
	],
	"animations":[
		{
			"channels":[
				{
					"sampler":0,
					"target":{
						"node":1,
						"path":"translation"
					}
				},
				{
					"sampler":1,
					"target":{
						"node":1,
						"path":"rotation"
					}
				},
				{
					"sampler":2,
					"target":{
						"node":1,
						"path":"scale"
					}
				},
				{
					"sampler":3,
					"target":{
						"node":0,
						"path":"translation"
					}
				},
				{
					"sampler":4,
					"target":{
						"node":0,
						"path":"rotation"
					}
				},
				{
					"sampler":5,
					"target":{
						"node":0,
						"path":"scale"
					}
				}
			],
			"name":"move",
			"samplers":[
				{
					"input":7,
					"interpolation":"LINEAR",
					"output":8
				},
				{
					"input":7,
					"interpolation":"LINEAR",
					"output":9
				},
				{
					"input":7,
					"interpolation":"LINEAR",
					"output":10
				},
				{
					"input":7,
					"interpolation":"LINEAR",
					"output":11
				},
				{
					"input":7,
					"interpolation":"LINEAR",
					"output":12
				},
				{
					"input":7,
					"interpolation":"LINEAR",
					"output":13
				}
			]
		}
	],
	"meshes":[
		{
			"name":"\u5e73\u9762",
			"primitives":[
				{
					"attributes":{
						"POSITION":0,
						"TEXCOORD_0":1,
						"NORMAL":2,
						"JOINTS_0":3,
						"WEIGHTS_0":4
					},
					"indices":5
				}
			]
		}
	],
	"skins":[
		{
			"inverseBindMatrices":6,
			"joints":[
				1,
				0
			],
			"name":"Armor"
		}
	],
	"accessors":[
		{
			"bufferView":0,
			"componentType":5126,
			"count":6,
			"max":[
				1,
				1,
				4.371138828673793e-08
			],
			"min":[
				-1,
				-1,
				-4.371138828673793e-08
			],
			"type":"VEC3"
		},
		{
			"bufferView":1,
			"componentType":5126,
			"count":6,
			"type":"VEC2"
		},
		{
			"bufferView":2,
			"componentType":5126,
			"count":6,
			"type":"VEC3"
		},
		{
			"bufferView":3,
			"componentType":5121,
			"count":6,
			"type":"VEC4"
		},
		{
			"bufferView":4,
			"componentType":5126,
			"count":6,
			"type":"VEC4"
		},
		{
			"bufferView":5,
			"componentType":5123,
			"count":12,
			"type":"SCALAR"
		},
		{
			"bufferView":6,
			"componentType":5126,
			"count":2,
			"type":"MAT4"
		},
		{
			"bufferView":7,
			"componentType":5126,
			"count":60,
			"max":[
				2.5
			],
			"min":[
				0.041666666666666664
			],
			"type":"SCALAR"
		},
		{
			"bufferView":8,
			"componentType":5126,
			"count":60,
			"type":"VEC3"
		},
		{
			"bufferView":9,
			"componentType":5126,
			"count":60,
			"type":"VEC4"
		},
		{
			"bufferView":10,
			"componentType":5126,
			"count":60,
			"type":"VEC3"
		},
		{
			"bufferView":11,
			"componentType":5126,
			"count":60,
			"type":"VEC3"
		},
		{
			"bufferView":12,
			"componentType":5126,
			"count":60,
			"type":"VEC4"
		},
		{
			"bufferView":13,
			"componentType":5126,
			"count":60,
			"type":"VEC3"
		}
	],
	"bufferViews":[
		{
			"buffer":0,
			"byteLength":72,
			"byteOffset":0,
			"target":34962
		},
		{
			"buffer":0,
			"byteLength":48,
			"byteOffset":72,
			"target":34962
		},
		{
			"buffer":0,
			"byteLength":72,
			"byteOffset":120,
			"target":34962
		},
		{
			"buffer":0,
			"byteLength":24,
			"byteOffset":192,
			"target":34962
		},
		{
			"buffer":0,
			"byteLength":96,
			"byteOffset":216,
			"target":34962
		},
		{
			"buffer":0,
			"byteLength":24,
			"byteOffset":312,
			"target":34963
		},
		{
			"buffer":0,
			"byteLength":128,
			"byteOffset":336
		},
		{
			"buffer":0,
			"byteLength":240,
			"byteOffset":464
		},
		{
			"buffer":0,
			"byteLength":720,
			"byteOffset":704
		},
		{
			"buffer":0,
			"byteLength":960,
			"byteOffset":1424
		},
		{
			"buffer":0,
			"byteLength":720,
			"byteOffset":2384
		},
		{
			"buffer":0,
			"byteLength":720,
			"byteOffset":3104
		},
		{
			"buffer":0,
			"byteLength":960,
			"byteOffset":3824
		},
		{
			"buffer":0,
			"byteLength":720,
			"byteOffset":4784
		}
	],
	"buffers":[
		{
			"byteLength":5504,
			"uri":"test.bin"
		}
	]
}
