# Blender 3.5.0
# www.blender.org
mtllib multiMesh.mtl
o Plane
v 1.000000 -1.000000 0.000000
v -1.000000 -1.000000 0.000000
v 1.000000 1.000000 -0.000000
v -1.000000 1.000000 -0.000000
vn -0.0000 -0.0000 -1.0000
vt 0.000000 0.000000
vt 1.000000 0.000000
vt 0.000000 1.000000
vt 1.000000 1.000000
s 0
usemtl Material.001
f 2/2/1 3/3/1 1/1/1
f 2/2/1 4/4/1 3/3/1
o Cube
v -1.495951 0.226224 -0.724649
v -1.495951 2.226224 -0.724649
v -1.495951 0.226224 1.275351
v -1.495951 2.226224 1.275351
v -3.495951 0.226224 -0.724649
v -3.495951 2.226224 -0.724649
v -3.495951 0.226224 1.275351
v -3.495951 2.226224 1.275351
vn 1.0000 -0.0000 -0.0000
vn -0.0000 -0.0000 1.0000
vn -1.0000 -0.0000 -0.0000
vn -0.0000 -0.0000 -1.0000
vn -0.0000 -1.0000 -0.0000
vn -0.0000 1.0000 -0.0000
vt 0.375000 0.000000
vt 0.375000 1.000000
vt 0.125000 0.750000
vt 0.625000 0.000000
vt 0.625000 1.000000
vt 0.875000 0.750000
vt 0.125000 0.500000
vt 0.375000 0.250000
vt 0.875000 0.500000
vt 0.625000 0.250000
vt 0.375000 0.750000
vt 0.625000 0.750000
vt 0.375000 0.500000
vt 0.625000 0.500000
s 0
usemtl Material.001
f 6/8/2 7/12/2 5/5/2
f 8/14/3 11/17/3 7/12/3
f 12/18/4 9/15/4 11/17/4
f 10/16/5 5/6/5 9/15/5
f 11/17/6 5/7/6 7/11/6
f 8/13/7 10/16/7 12/18/7
f 6/8/2 8/14/2 7/12/2
f 10/16/5 6/9/5 5/6/5
f 11/17/6 9/15/6 5/7/6
f 8/13/7 6/10/7 10/16/7
f 8/14/3 12/18/3 11/17/3
f 12/18/4 10/16/4 9/15/4
