# Blender 3.5.0
# www.blender.org
mtllib multiMaterial.mtl
o Plane
v 1.000000 -1.000000 0.000000
v -1.000000 -1.000000 0.000000
v 1.000000 1.000000 -0.000000
v -1.000000 1.000000 -0.000000
vn -0.0000 -0.0000 -1.0000
vt 0.000000 0.000000
vt 1.000000 0.000000
vt 0.000000 1.000000
vt 1.000000 1.000000
s 0
usemtl Material.001
f 2/2/1 3/3/1 1/1/1
f 2/2/1 4/4/1 3/3/1
o Cube
v -1.495951 0.226224 -0.724649
v -1.495951 2.226224 -0.724649
v -1.495951 0.226224 1.275351
v -1.495951 2.226224 1.275351
v -3.495951 0.226224 -0.724649
v -3.495951 2.226224 -0.724649
v -3.495951 0.226224 1.275351
v -3.495951 2.226224 1.275351
vn 1.0000 -0.0000 -0.0000
vn -0.0000 -0.0000 1.0000
vn -1.0000 -0.0000 -0.0000
vn -0.0000 -0.0000 -1.0000
vn -0.0000 -1.0000 -0.0000
vn -0.0000 1.0000 -0.0000
vt 0.250000 0.000000
vt 0.250000 1.000000
vt 0.250000 0.000000
vt 0.250000 0.000000
vt 0.250000 1.000000
vt 0.750000 0.000000
vt 0.750000 1.000000
vt 0.250000 1.000000
vt 0.750000 0.000000
vt 0.250000 0.000000
vt 0.750000 1.000000
vt 0.750000 0.000000
vt 0.250000 1.000000
vt 0.750000 1.000000
vt 0.750000 0.000000
vt 0.750000 1.000000
s 0
usemtl Material
f 6/6/2 7/10/2 5/5/2
f 8/12/3 11/19/3 7/8/3
f 12/20/4 9/14/4 11/19/4
f 10/15/5 5/5/5 9/13/5
f 11/18/6 5/5/6 7/9/6
f 8/12/7 10/16/7 12/20/7
f 6/6/2 8/11/2 7/10/2
f 10/15/5 6/6/5 5/5/5
f 11/18/6 9/13/6 5/5/6
f 8/12/7 6/7/7 10/16/7
f 8/12/3 12/20/3 11/19/3
f 12/20/4 10/17/4 9/14/4
