{
	"asset":{
		"generator":"Khronos glTF Blender I/O v4.1.63",
		"version":"2.0"
	},
	"scene":0,
	"scenes":[
		{
			"name":"Scene",
			"nodes":[
				0
			]
		}
	],
	"nodes":[
		{
			"mesh":0,
			"name":"human"
		}
	],
	"materials":[
		{
			"alphaMode":"BLEND",
			"doubleSided":true,
			"name":"\u6750\u8cea6.001",
			"pbrMetallicRoughness":{
				"baseColorFactor":[
					1,
					1,
					1,
					0.9990000128746033
				],
				"baseColorTexture":{
					"index":0
				},
				"metallicFactor":0
			}
		},
		{
			"alphaMode":"BLEND",
			"doubleSided":true,
			"name":"\u6750\u8cea1.001",
			"pbrMetallicRoughness":{
				"baseColorFactor":[
					1,
					1,
					1,
					0.9990000128746033
				],
				"baseColorTexture":{
					"index":1
				},
				"metallicFactor":0
			}
		},
		{
			"alphaMode":"BLEND",
			"doubleSided":true,
			"name":"\u6750\u8cea2.001",
			"pbrMetallicRoughness":{
				"baseColorFactor":[
					1,
					1,
					1,
					0.9990000128746033
				],
				"baseColorTexture":{
					"index":2
				},
				"metallicFactor":0
			}
		},
		{
			"alphaMode":"BLEND",
			"doubleSided":true,
			"name":"\u6750\u8cea3.001",
			"pbrMetallicRoughness":{
				"baseColorFactor":[
					1,
					1,
					1,
					0.9990000128746033
				],
				"baseColorTexture":{
					"index":3
				},
				"metallicFactor":0
			}
		},
		{
			"alphaMode":"BLEND",
			"doubleSided":true,
			"name":"\u6750\u8cea4.001",
			"pbrMetallicRoughness":{
				"baseColorFactor":[
					1,
					1,
					1,
					0.9990000128746033
				],
				"baseColorTexture":{
					"index":4
				},
				"metallicFactor":0
			}
		},
		{
			"alphaMode":"BLEND",
			"doubleSided":true,
			"name":"\u6750\u8cea5.001",
			"pbrMetallicRoughness":{
				"baseColorFactor":[
					1,
					1,
					1,
					0.9990000128746033
				],
				"baseColorTexture":{
					"index":5
				},
				"metallicFactor":0
			}
		},
		{
			"alphaMode":"BLEND",
			"doubleSided":true,
			"name":"\u6750\u8cea7.001",
			"pbrMetallicRoughness":{
				"baseColorFactor":[
					1,
					1,
					1,
					0.9990000128746033
				],
				"baseColorTexture":{
					"index":6
				},
				"metallicFactor":0
			}
		},
		{
			"alphaMode":"BLEND",
			"doubleSided":true,
			"name":"\u6750\u8cea8.001",
			"pbrMetallicRoughness":{
				"baseColorFactor":[
					1,
					1,
					1,
					0.9990000128746033
				],
				"baseColorTexture":{
					"index":7
				},
				"metallicFactor":0
			}
		},
		{
			"alphaMode":"BLEND",
			"doubleSided":true,
			"name":"\u6750\u8cea9.001",
			"pbrMetallicRoughness":{
				"baseColorFactor":[
					1,
					1,
					1,
					0.9990000128746033
				],
				"baseColorTexture":{
					"index":8
				},
				"metallicFactor":0
			}
		},
		{
			"alphaMode":"BLEND",
			"doubleSided":true,
			"name":"\u6750\u8cea10.001",
			"pbrMetallicRoughness":{
				"baseColorFactor":[
					1,
					1,
					1,
					0.9990000128746033
				],
				"baseColorTexture":{
					"index":9
				},
				"metallicFactor":0
			}
		},
		{
			"alphaMode":"BLEND",
			"doubleSided":true,
			"name":"\u6750\u8cea11.001",
			"pbrMetallicRoughness":{
				"baseColorFactor":[
					1,
					1,
					1,
					0.9990000128746033
				],
				"baseColorTexture":{
					"index":10
				},
				"metallicFactor":0
			}
		},
		{
			"alphaMode":"BLEND",
			"doubleSided":true,
			"name":"\u6750\u8cea12.001",
			"pbrMetallicRoughness":{
				"baseColorFactor":[
					1,
					1,
					1,
					0.9990000128746033
				],
				"baseColorTexture":{
					"index":11
				},
				"metallicFactor":0
			}
		},
		{
			"alphaMode":"BLEND",
			"doubleSided":true,
			"name":"\u6750\u8cea13.001",
			"pbrMetallicRoughness":{
				"baseColorFactor":[
					1,
					1,
					1,
					0.9990000128746033
				],
				"baseColorTexture":{
					"index":12
				},
				"metallicFactor":0
			}
		},
		{
			"alphaMode":"BLEND",
			"doubleSided":true,
			"name":"\u6750\u8cea14.001",
			"pbrMetallicRoughness":{
				"baseColorFactor":[
					1,
					1,
					1,
					0.9990000128746033
				],
				"baseColorTexture":{
					"index":13
				},
				"metallicFactor":0
			}
		}
	],
	"meshes":[
		{
			"name":"005_\u6750\u8cea6",
			"primitives":[
				{
					"attributes":{
						"POSITION":0,
						"NORMAL":1,
						"TEXCOORD_0":2
					},
					"indices":3,
					"material":0
				},
				{
					"attributes":{
						"POSITION":4,
						"NORMAL":5,
						"TEXCOORD_0":6
					},
					"indices":7,
					"material":1
				},
				{
					"attributes":{
						"POSITION":8,
						"NORMAL":9,
						"TEXCOORD_0":10
					},
					"indices":11,
					"material":2
				},
				{
					"attributes":{
						"POSITION":12,
						"NORMAL":13,
						"TEXCOORD_0":14
					},
					"indices":15,
					"material":3
				},
				{
					"attributes":{
						"POSITION":16,
						"NORMAL":17,
						"TEXCOORD_0":18
					},
					"indices":19,
					"material":4
				},
				{
					"attributes":{
						"POSITION":20,
						"NORMAL":21,
						"TEXCOORD_0":22
					},
					"indices":23,
					"material":5
				},
				{
					"attributes":{
						"POSITION":24,
						"NORMAL":25,
						"TEXCOORD_0":26
					},
					"indices":27,
					"material":6
				},
				{
					"attributes":{
						"POSITION":28,
						"NORMAL":29,
						"TEXCOORD_0":30
					},
					"indices":31,
					"material":7
				},
				{
					"attributes":{
						"POSITION":32,
						"NORMAL":33,
						"TEXCOORD_0":34
					},
					"indices":35,
					"material":8
				},
				{
					"attributes":{
						"POSITION":36,
						"NORMAL":37,
						"TEXCOORD_0":38
					},
					"indices":39,
					"material":9
				},
				{
					"attributes":{
						"POSITION":40,
						"NORMAL":41,
						"TEXCOORD_0":42
					},
					"indices":43,
					"material":10
				},
				{
					"attributes":{
						"POSITION":44,
						"NORMAL":45,
						"TEXCOORD_0":46
					},
					"indices":47,
					"material":11
				},
				{
					"attributes":{
						"POSITION":48,
						"NORMAL":49,
						"TEXCOORD_0":50
					},
					"indices":51,
					"material":12
				},
				{
					"attributes":{
						"POSITION":52,
						"NORMAL":53,
						"TEXCOORD_0":54
					},
					"indices":55,
					"material":13
				}
			]
		}
	],
	"textures":[
		{
			"sampler":0,
			"source":0
		},
		{
			"sampler":0,
			"source":1
		},
		{
			"sampler":0,
			"source":2
		},
		{
			"sampler":0,
			"source":2
		},
		{
			"sampler":0,
			"source":1
		},
		{
			"sampler":0,
			"source":3
		},
		{
			"sampler":0,
			"source":4
		},
		{
			"sampler":0,
			"source":4
		},
		{
			"sampler":0,
			"source":5
		},
		{
			"sampler":0,
			"source":6
		},
		{
			"sampler":0,
			"source":6
		},
		{
			"sampler":0,
			"source":7
		},
		{
			"sampler":0,
			"source":7
		},
		{
			"sampler":0,
			"source":7
		}
	],
	"images":[
		{
			"mimeType":"image/png",
			"name":"03",
			"uri":"03.png"
		},
		{
			"mimeType":"image/png",
			"name":"01",
			"uri":"01.png"
		},
		{
			"mimeType":"image/png",
			"name":"08",
			"uri":"08.png"
		},
		{
			"mimeType":"image/png",
			"name":"02",
			"uri":"02.png"
		},
		{
			"mimeType":"image/png",
			"name":"04",
			"uri":"04.png"
		},
		{
			"mimeType":"image/png",
			"name":"05",
			"uri":"05.png"
		},
		{
			"mimeType":"image/png",
			"name":"06",
			"uri":"06.png"
		},
		{
			"mimeType":"image/png",
			"name":"07",
			"uri":"07.png"
		}
	],
	"accessors":[
		{
			"bufferView":0,
			"componentType":5126,
			"count":3838,
			"max":[
				2.4405360221862793,
				7.7485761642456055,
				0.762015700340271
			],
			"min":[
				-2.4405360221862793,
				0.17292705178260803,
				-1.1050273180007935
			],
			"type":"VEC3"
		},
		{
			"bufferView":1,
			"componentType":5126,
			"count":3838,
			"type":"VEC3"
		},
		{
			"bufferView":2,
			"componentType":5126,
			"count":3838,
			"type":"VEC2"
		},
		{
			"bufferView":3,
			"componentType":5123,
			"count":18957,
			"type":"SCALAR"
		},
		{
			"bufferView":4,
			"componentType":5126,
			"count":760,
			"max":[
				0.4349760115146637,
				7.697519779205322,
				0.5523364543914795
			],
			"min":[
				-0.4349760115146637,
				6.599711894989014,
				-0.22693553566932678
			],
			"type":"VEC3"
		},
		{
			"bufferView":5,
			"componentType":5126,
			"count":760,
			"type":"VEC3"
		},
		{
			"bufferView":6,
			"componentType":5126,
			"count":760,
			"type":"VEC2"
		},
		{
			"bufferView":7,
			"componentType":5123,
			"count":3936,
			"type":"SCALAR"
		},
		{
			"bufferView":8,
			"componentType":5126,
			"count":110,
			"max":[
				0.3164829909801483,
				7.173060894012451,
				0.5273904800415039
			],
			"min":[
				-0.3164829909801483,
				6.935400009155273,
				0.20349445939064026
			],
			"type":"VEC3"
		},
		{
			"bufferView":9,
			"componentType":5126,
			"count":110,
			"type":"VEC3"
		},
		{
			"bufferView":10,
			"componentType":5126,
			"count":110,
			"type":"VEC2"
		},
		{
			"bufferView":11,
			"componentType":5123,
			"count":504,
			"type":"SCALAR"
		},
		{
			"bufferView":12,
			"componentType":5126,
			"count":30,
			"max":[
				0.22074100375175476,
				7.102632999420166,
				0.3412444591522217
			],
			"min":[
				-0.22074100375175476,
				7.0987138748168945,
				0.33798345923423767
			],
			"type":"VEC3"
		},
		{
			"bufferView":13,
			"componentType":5126,
			"count":30,
			"type":"VEC3"
		},
		{
			"bufferView":14,
			"componentType":5126,
			"count":30,
			"type":"VEC2"
		},
		{
			"bufferView":15,
			"componentType":5123,
			"count":120,
			"type":"SCALAR"
		},
		{
			"bufferView":16,
			"componentType":5126,
			"count":430,
			"max":[
				0.3711149990558624,
				7.346476078033447,
				0.5385604500770569
			],
			"min":[
				-0.3711149990558624,
				7.007778167724609,
				0.3221924602985382
			],
			"type":"VEC3"
		},
		{
			"bufferView":17,
			"componentType":5126,
			"count":430,
			"type":"VEC3"
		},
		{
			"bufferView":18,
			"componentType":5126,
			"count":430,
			"type":"VEC2"
		},
		{
			"bufferView":19,
			"componentType":5123,
			"count":1428,
			"type":"SCALAR"
		},
		{
			"bufferView":20,
			"componentType":5126,
			"count":2114,
			"max":[
				2.667819023132324,
				6.722202777862549,
				0.5510267019271851
			],
			"min":[
				-2.667818069458008,
				3.3897030353546143,
				-0.28771647810935974
			],
			"type":"VEC3"
		},
		{
			"bufferView":21,
			"componentType":5126,
			"count":2114,
			"type":"VEC3"
		},
		{
			"bufferView":22,
			"componentType":5126,
			"count":2114,
			"type":"VEC2"
		},
		{
			"bufferView":23,
			"componentType":5123,
			"count":11646,
			"type":"SCALAR"
		},
		{
			"bufferView":24,
			"componentType":5126,
			"count":939,
			"max":[
				0.7206479907035828,
				7.707339763641357,
				0.7582859992980957
			],
			"min":[
				-0.7206479907035828,
				0.008978039026260376,
				-0.43998634815216064
			],
			"type":"VEC3"
		},
		{
			"bufferView":25,
			"componentType":5126,
			"count":939,
			"type":"VEC3"
		},
		{
			"bufferView":26,
			"componentType":5126,
			"count":939,
			"type":"VEC2"
		},
		{
			"bufferView":27,
			"componentType":5123,
			"count":4482,
			"type":"SCALAR"
		},
		{
			"bufferView":28,
			"componentType":5126,
			"count":1273,
			"max":[
				1.2683360576629639,
				6.937445163726807,
				0.7395597100257874
			],
			"min":[
				-1.2683360576629639,
				3.6436519622802734,
				-1.1108053922653198
			],
			"type":"VEC3"
		},
		{
			"bufferView":29,
			"componentType":5126,
			"count":1273,
			"type":"VEC3"
		},
		{
			"bufferView":30,
			"componentType":5126,
			"count":1273,
			"type":"VEC2"
		},
		{
			"bufferView":31,
			"componentType":5123,
			"count":5712,
			"type":"SCALAR"
		},
		{
			"bufferView":32,
			"componentType":5126,
			"count":1564,
			"max":[
				0.8303710222244263,
				6.354608058929443,
				0.6059607267379761
			],
			"min":[
				-0.8303710222244263,
				0.3355790376663208,
				-0.34907037019729614
			],
			"type":"VEC3"
		},
		{
			"bufferView":33,
			"componentType":5126,
			"count":1564,
			"type":"VEC3"
		},
		{
			"bufferView":34,
			"componentType":5126,
			"count":1564,
			"type":"VEC2"
		},
		{
			"bufferView":35,
			"componentType":5123,
			"count":6918,
			"type":"SCALAR"
		},
		{
			"bufferView":36,
			"componentType":5126,
			"count":681,
			"max":[
				0.5509009957313538,
				6.948037147521973,
				0.4439714848995209
			],
			"min":[
				-2.286345958709717,
				5.068668842315674,
				-0.26373839378356934
			],
			"type":"VEC3"
		},
		{
			"bufferView":37,
			"componentType":5126,
			"count":681,
			"type":"VEC3"
		},
		{
			"bufferView":38,
			"componentType":5126,
			"count":681,
			"type":"VEC2"
		},
		{
			"bufferView":39,
			"componentType":5123,
			"count":3264,
			"type":"SCALAR"
		},
		{
			"bufferView":40,
			"componentType":5126,
			"count":724,
			"max":[
				0.755141019821167,
				7.707339763641357,
				0.6095526814460754
			],
			"min":[
				-0.755141019821167,
				4.013068199157715,
				-0.4443473517894745
			],
			"type":"VEC3"
		},
		{
			"bufferView":41,
			"componentType":5126,
			"count":724,
			"type":"VEC3"
		},
		{
			"bufferView":42,
			"componentType":5126,
			"count":724,
			"type":"VEC2"
		},
		{
			"bufferView":43,
			"componentType":5123,
			"count":3480,
			"type":"SCALAR"
		},
		{
			"bufferView":44,
			"componentType":5126,
			"count":1921,
			"max":[
				0.6370760202407837,
				8.216277122497559,
				0.686040461063385
			],
			"min":[
				-0.6370760202407837,
				7.11647891998291,
				-0.09035962074995041
			],
			"type":"VEC3"
		},
		{
			"bufferView":45,
			"componentType":5126,
			"count":1921,
			"type":"VEC3"
		},
		{
			"bufferView":46,
			"componentType":5126,
			"count":1921,
			"type":"VEC2"
		},
		{
			"bufferView":47,
			"componentType":5123,
			"count":9108,
			"type":"SCALAR"
		},
		{
			"bufferView":48,
			"componentType":5126,
			"count":1501,
			"max":[
				0.7128679752349854,
				7.980518817901611,
				0.2760724127292633
			],
			"min":[
				-0.7128679752349854,
				6.79261589050293,
				-0.6088835597038269
			],
			"type":"VEC3"
		},
		{
			"bufferView":49,
			"componentType":5126,
			"count":1501,
			"type":"VEC3"
		},
		{
			"bufferView":50,
			"componentType":5126,
			"count":1501,
			"type":"VEC2"
		},
		{
			"bufferView":51,
			"componentType":5123,
			"count":6720,
			"type":"SCALAR"
		},
		{
			"bufferView":52,
			"componentType":5126,
			"count":4206,
			"max":[
				0.864874005317688,
				7.8950700759887695,
				1.347106695175171
			],
			"min":[
				-0.864874005317688,
				5.345477104187012,
				0.03922443091869354
			],
			"type":"VEC3"
		},
		{
			"bufferView":53,
			"componentType":5126,
			"count":4206,
			"type":"VEC3"
		},
		{
			"bufferView":54,
			"componentType":5126,
			"count":4206,
			"type":"VEC2"
		},
		{
			"bufferView":55,
			"componentType":5123,
			"count":21816,
			"type":"SCALAR"
		}
	],
	"bufferViews":[
		{
			"buffer":0,
			"byteLength":46056,
			"byteOffset":0,
			"target":34962
		},
		{
			"buffer":0,
			"byteLength":46056,
			"byteOffset":46056,
			"target":34962
		},
		{
			"buffer":0,
			"byteLength":30704,
			"byteOffset":92112,
			"target":34962
		},
		{
			"buffer":0,
			"byteLength":37914,
			"byteOffset":122816,
			"target":34963
		},
		{
			"buffer":0,
			"byteLength":9120,
			"byteOffset":160732,
			"target":34962
		},
		{
			"buffer":0,
			"byteLength":9120,
			"byteOffset":169852,
			"target":34962
		},
		{
			"buffer":0,
			"byteLength":6080,
			"byteOffset":178972,
			"target":34962
		},
		{
			"buffer":0,
			"byteLength":7872,
			"byteOffset":185052,
			"target":34963
		},
		{
			"buffer":0,
			"byteLength":1320,
			"byteOffset":192924,
			"target":34962
		},
		{
			"buffer":0,
			"byteLength":1320,
			"byteOffset":194244,
			"target":34962
		},
		{
			"buffer":0,
			"byteLength":880,
			"byteOffset":195564,
			"target":34962
		},
		{
			"buffer":0,
			"byteLength":1008,
			"byteOffset":196444,
			"target":34963
		},
		{
			"buffer":0,
			"byteLength":360,
			"byteOffset":197452,
			"target":34962
		},
		{
			"buffer":0,
			"byteLength":360,
			"byteOffset":197812,
			"target":34962
		},
		{
			"buffer":0,
			"byteLength":240,
			"byteOffset":198172,
			"target":34962
		},
		{
			"buffer":0,
			"byteLength":240,
			"byteOffset":198412,
			"target":34963
		},
		{
			"buffer":0,
			"byteLength":5160,
			"byteOffset":198652,
			"target":34962
		},
		{
			"buffer":0,
			"byteLength":5160,
			"byteOffset":203812,
			"target":34962
		},
		{
			"buffer":0,
			"byteLength":3440,
			"byteOffset":208972,
			"target":34962
		},
		{
			"buffer":0,
			"byteLength":2856,
			"byteOffset":212412,
			"target":34963
		},
		{
			"buffer":0,
			"byteLength":25368,
			"byteOffset":215268,
			"target":34962
		},
		{
			"buffer":0,
			"byteLength":25368,
			"byteOffset":240636,
			"target":34962
		},
		{
			"buffer":0,
			"byteLength":16912,
			"byteOffset":266004,
			"target":34962
		},
		{
			"buffer":0,
			"byteLength":23292,
			"byteOffset":282916,
			"target":34963
		},
		{
			"buffer":0,
			"byteLength":11268,
			"byteOffset":306208,
			"target":34962
		},
		{
			"buffer":0,
			"byteLength":11268,
			"byteOffset":317476,
			"target":34962
		},
		{
			"buffer":0,
			"byteLength":7512,
			"byteOffset":328744,
			"target":34962
		},
		{
			"buffer":0,
			"byteLength":8964,
			"byteOffset":336256,
			"target":34963
		},
		{
			"buffer":0,
			"byteLength":15276,
			"byteOffset":345220,
			"target":34962
		},
		{
			"buffer":0,
			"byteLength":15276,
			"byteOffset":360496,
			"target":34962
		},
		{
			"buffer":0,
			"byteLength":10184,
			"byteOffset":375772,
			"target":34962
		},
		{
			"buffer":0,
			"byteLength":11424,
			"byteOffset":385956,
			"target":34963
		},
		{
			"buffer":0,
			"byteLength":18768,
			"byteOffset":397380,
			"target":34962
		},
		{
			"buffer":0,
			"byteLength":18768,
			"byteOffset":416148,
			"target":34962
		},
		{
			"buffer":0,
			"byteLength":12512,
			"byteOffset":434916,
			"target":34962
		},
		{
			"buffer":0,
			"byteLength":13836,
			"byteOffset":447428,
			"target":34963
		},
		{
			"buffer":0,
			"byteLength":8172,
			"byteOffset":461264,
			"target":34962
		},
		{
			"buffer":0,
			"byteLength":8172,
			"byteOffset":469436,
			"target":34962
		},
		{
			"buffer":0,
			"byteLength":5448,
			"byteOffset":477608,
			"target":34962
		},
		{
			"buffer":0,
			"byteLength":6528,
			"byteOffset":483056,
			"target":34963
		},
		{
			"buffer":0,
			"byteLength":8688,
			"byteOffset":489584,
			"target":34962
		},
		{
			"buffer":0,
			"byteLength":8688,
			"byteOffset":498272,
			"target":34962
		},
		{
			"buffer":0,
			"byteLength":5792,
			"byteOffset":506960,
			"target":34962
		},
		{
			"buffer":0,
			"byteLength":6960,
			"byteOffset":512752,
			"target":34963
		},
		{
			"buffer":0,
			"byteLength":23052,
			"byteOffset":519712,
			"target":34962
		},
		{
			"buffer":0,
			"byteLength":23052,
			"byteOffset":542764,
			"target":34962
		},
		{
			"buffer":0,
			"byteLength":15368,
			"byteOffset":565816,
			"target":34962
		},
		{
			"buffer":0,
			"byteLength":18216,
			"byteOffset":581184,
			"target":34963
		},
		{
			"buffer":0,
			"byteLength":18012,
			"byteOffset":599400,
			"target":34962
		},
		{
			"buffer":0,
			"byteLength":18012,
			"byteOffset":617412,
			"target":34962
		},
		{
			"buffer":0,
			"byteLength":12008,
			"byteOffset":635424,
			"target":34962
		},
		{
			"buffer":0,
			"byteLength":13440,
			"byteOffset":647432,
			"target":34963
		},
		{
			"buffer":0,
			"byteLength":50472,
			"byteOffset":660872,
			"target":34962
		},
		{
			"buffer":0,
			"byteLength":50472,
			"byteOffset":711344,
			"target":34962
		},
		{
			"buffer":0,
			"byteLength":33648,
			"byteOffset":761816,
			"target":34962
		},
		{
			"buffer":0,
			"byteLength":43632,
			"byteOffset":795464,
			"target":34963
		}
	],
	"samplers":[
		{
			"magFilter":9729,
			"minFilter":9987
		}
	],
	"buffers":[
		{
			"byteLength":839096,
			"uri":"YukariGLTF.bin"
		}
	]
}
