{
	"asset":{
		"generator":"Khronos glTF Blender I/O v4.1.63",
		"version":"2.0"
	},
	"scene":0,
	"scenes":[
		{
			"name":"Scene",
			"nodes":[
				0
			]
		}
	],
	"nodes":[
		{
			"mesh":0,
			"name":"human",
			"rotation":[
				0.7071068286895752,
				0,
				0,
				0.7071068286895752
			]
		}
	],
	"materials":[
		{
			"alphaMode":"BLEND",
			"doubleSided":true,
			"name":"\u6750\u8cea6.001",
			"pbrMetallicRoughness":{
				"baseColorFactor":[
					1,
					1,
					1,
					0.9990000128746033
				],
				"baseColorTexture":{
					"index":0
				},
				"metallicFactor":0
			}
		},
		{
			"alphaMode":"BLEND",
			"doubleSided":true,
			"name":"\u6750\u8cea1.001",
			"pbrMetallicRoughness":{
				"baseColorFactor":[
					1,
					1,
					1,
					0.9990000128746033
				],
				"baseColorTexture":{
					"index":1
				},
				"metallicFactor":0
			}
		},
		{
			"alphaMode":"BLEND",
			"doubleSided":true,
			"name":"\u6750\u8cea2.001",
			"pbrMetallicRoughness":{
				"baseColorFactor":[
					1,
					1,
					1,
					0.9990000128746033
				],
				"baseColorTexture":{
					"index":2
				},
				"metallicFactor":0
			}
		},
		{
			"alphaMode":"BLEND",
			"doubleSided":true,
			"name":"\u6750\u8cea3.001",
			"pbrMetallicRoughness":{
				"baseColorFactor":[
					1,
					1,
					1,
					0.9990000128746033
				],
				"baseColorTexture":{
					"index":3
				},
				"metallicFactor":0
			}
		},
		{
			"alphaMode":"BLEND",
			"doubleSided":true,
			"name":"\u6750\u8cea4.001",
			"pbrMetallicRoughness":{
				"baseColorFactor":[
					1,
					1,
					1,
					0.9990000128746033
				],
				"baseColorTexture":{
					"index":4
				},
				"metallicFactor":0
			}
		},
		{
			"alphaMode":"BLEND",
			"doubleSided":true,
			"name":"\u6750\u8cea5.001",
			"pbrMetallicRoughness":{
				"baseColorFactor":[
					1,
					1,
					1,
					0.9990000128746033
				],
				"baseColorTexture":{
					"index":5
				},
				"metallicFactor":0
			}
		},
		{
			"alphaMode":"BLEND",
			"doubleSided":true,
			"name":"\u6750\u8cea7.001",
			"pbrMetallicRoughness":{
				"baseColorFactor":[
					1,
					1,
					1,
					0.9990000128746033
				],
				"baseColorTexture":{
					"index":6
				},
				"metallicFactor":0
			}
		},
		{
			"alphaMode":"BLEND",
			"doubleSided":true,
			"name":"\u6750\u8cea8.001",
			"pbrMetallicRoughness":{
				"baseColorFactor":[
					1,
					1,
					1,
					0.9990000128746033
				],
				"baseColorTexture":{
					"index":7
				},
				"metallicFactor":0
			}
		},
		{
			"alphaMode":"BLEND",
			"doubleSided":true,
			"name":"\u6750\u8cea9.001",
			"pbrMetallicRoughness":{
				"baseColorFactor":[
					1,
					1,
					1,
					0.9990000128746033
				],
				"baseColorTexture":{
					"index":8
				},
				"metallicFactor":0
			}
		},
		{
			"alphaMode":"BLEND",
			"doubleSided":true,
			"name":"\u6750\u8cea10.001",
			"pbrMetallicRoughness":{
				"baseColorFactor":[
					1,
					1,
					1,
					0.9990000128746033
				],
				"baseColorTexture":{
					"index":9
				},
				"metallicFactor":0
			}
		},
		{
			"alphaMode":"BLEND",
			"doubleSided":true,
			"name":"\u6750\u8cea11.001",
			"pbrMetallicRoughness":{
				"baseColorFactor":[
					1,
					1,
					1,
					0.9990000128746033
				],
				"baseColorTexture":{
					"index":10
				},
				"metallicFactor":0
			}
		},
		{
			"alphaMode":"BLEND",
			"doubleSided":true,
			"name":"\u6750\u8cea12.001",
			"pbrMetallicRoughness":{
				"baseColorFactor":[
					1,
					1,
					1,
					0.9990000128746033
				],
				"baseColorTexture":{
					"index":11
				},
				"metallicFactor":0
			}
		},
		{
			"alphaMode":"BLEND",
			"doubleSided":true,
			"name":"\u6750\u8cea13.001",
			"pbrMetallicRoughness":{
				"baseColorFactor":[
					1,
					1,
					1,
					0.9990000128746033
				],
				"baseColorTexture":{
					"index":12
				},
				"metallicFactor":0
			}
		},
		{
			"alphaMode":"BLEND",
			"doubleSided":true,
			"name":"\u6750\u8cea14.001",
			"pbrMetallicRoughness":{
				"baseColorFactor":[
					1,
					1,
					1,
					0.9990000128746033
				],
				"baseColorTexture":{
					"index":13
				},
				"metallicFactor":0
			}
		}
	],
	"meshes":[
		{
			"name":"005_\u6750\u8cea6",
			"primitives":[
				{
					"attributes":{
						"POSITION":0,
						"NORMAL":1,
						"TEXCOORD_0":2
					},
					"indices":3,
					"material":0
				},
				{
					"attributes":{
						"POSITION":4,
						"NORMAL":5,
						"TEXCOORD_0":6
					},
					"indices":7,
					"material":1
				},
				{
					"attributes":{
						"POSITION":8,
						"NORMAL":9,
						"TEXCOORD_0":10
					},
					"indices":11,
					"material":2
				},
				{
					"attributes":{
						"POSITION":12,
						"NORMAL":13,
						"TEXCOORD_0":14
					},
					"indices":15,
					"material":3
				},
				{
					"attributes":{
						"POSITION":16,
						"NORMAL":17,
						"TEXCOORD_0":18
					},
					"indices":19,
					"material":4
				},
				{
					"attributes":{
						"POSITION":20,
						"NORMAL":21,
						"TEXCOORD_0":22
					},
					"indices":23,
					"material":5
				},
				{
					"attributes":{
						"POSITION":24,
						"NORMAL":25,
						"TEXCOORD_0":26
					},
					"indices":27,
					"material":6
				},
				{
					"attributes":{
						"POSITION":28,
						"NORMAL":29,
						"TEXCOORD_0":30
					},
					"indices":31,
					"material":7
				},
				{
					"attributes":{
						"POSITION":32,
						"NORMAL":33,
						"TEXCOORD_0":34
					},
					"indices":35,
					"material":8
				},
				{
					"attributes":{
						"POSITION":36,
						"NORMAL":37,
						"TEXCOORD_0":38
					},
					"indices":39,
					"material":9
				},
				{
					"attributes":{
						"POSITION":40,
						"NORMAL":41,
						"TEXCOORD_0":42
					},
					"indices":43,
					"material":10
				},
				{
					"attributes":{
						"POSITION":44,
						"NORMAL":45,
						"TEXCOORD_0":46
					},
					"indices":47,
					"material":11
				},
				{
					"attributes":{
						"POSITION":48,
						"NORMAL":49,
						"TEXCOORD_0":50
					},
					"indices":51,
					"material":12
				},
				{
					"attributes":{
						"POSITION":52,
						"NORMAL":53,
						"TEXCOORD_0":54
					},
					"indices":55,
					"material":13
				}
			]
		}
	],
	"textures":[
		{
			"sampler":0,
			"source":0
		},
		{
			"sampler":0,
			"source":1
		},
		{
			"sampler":0,
			"source":2
		},
		{
			"sampler":0,
			"source":2
		},
		{
			"sampler":0,
			"source":1
		},
		{
			"sampler":0,
			"source":3
		},
		{
			"sampler":0,
			"source":4
		},
		{
			"sampler":0,
			"source":4
		},
		{
			"sampler":0,
			"source":5
		},
		{
			"sampler":0,
			"source":6
		},
		{
			"sampler":0,
			"source":6
		},
		{
			"sampler":0,
			"source":7
		},
		{
			"sampler":0,
			"source":7
		},
		{
			"sampler":0,
			"source":7
		}
	],
	"images":[
		{
			"mimeType":"image/png",
			"name":"03",
			"uri":"03.png"
		},
		{
			"mimeType":"image/png",
			"name":"01",
			"uri":"01.png"
		},
		{
			"mimeType":"image/png",
			"name":"08",
			"uri":"08.png"
		},
		{
			"mimeType":"image/png",
			"name":"02",
			"uri":"02.png"
		},
		{
			"mimeType":"image/png",
			"name":"04",
			"uri":"04.png"
		},
		{
			"mimeType":"image/png",
			"name":"05",
			"uri":"05.png"
		},
		{
			"mimeType":"image/png",
			"name":"06",
			"uri":"06.png"
		},
		{
			"mimeType":"image/png",
			"name":"07",
			"uri":"07.png"
		}
	],
	"accessors":[
		{
			"bufferView":0,
			"componentType":5126,
			"count":3839,
			"max":[
				2.4405360221862793,
				0.7620159983634949,
				-0.17292700707912445
			],
			"min":[
				-2.4405360221862793,
				-1.1050269603729248,
				-7.7485761642456055
			],
			"type":"VEC3"
		},
		{
			"bufferView":1,
			"componentType":5126,
			"count":3839,
			"type":"VEC3"
		},
		{
			"bufferView":2,
			"componentType":5126,
			"count":3839,
			"type":"VEC2"
		},
		{
			"bufferView":3,
			"componentType":5123,
			"count":18957,
			"type":"SCALAR"
		},
		{
			"bufferView":4,
			"componentType":5126,
			"count":760,
			"max":[
				0.4349760115146637,
				0.5523369908332825,
				-6.599711894989014
			],
			"min":[
				-0.4349760115146637,
				-0.2269349992275238,
				-7.697519779205322
			],
			"type":"VEC3"
		},
		{
			"bufferView":5,
			"componentType":5126,
			"count":760,
			"type":"VEC3"
		},
		{
			"bufferView":6,
			"componentType":5126,
			"count":760,
			"type":"VEC2"
		},
		{
			"bufferView":7,
			"componentType":5123,
			"count":3936,
			"type":"SCALAR"
		},
		{
			"bufferView":8,
			"componentType":5126,
			"count":110,
			"max":[
				0.3164829909801483,
				0.5273910164833069,
				-6.935400009155273
			],
			"min":[
				-0.3164829909801483,
				0.20349499583244324,
				-7.173060894012451
			],
			"type":"VEC3"
		},
		{
			"bufferView":9,
			"componentType":5126,
			"count":110,
			"type":"VEC3"
		},
		{
			"bufferView":10,
			"componentType":5126,
			"count":110,
			"type":"VEC2"
		},
		{
			"bufferView":11,
			"componentType":5123,
			"count":504,
			"type":"SCALAR"
		},
		{
			"bufferView":12,
			"componentType":5126,
			"count":30,
			"max":[
				0.22074100375175476,
				0.34124499559402466,
				-7.0987138748168945
			],
			"min":[
				-0.22074100375175476,
				0.33798399567604065,
				-7.102632999420166
			],
			"type":"VEC3"
		},
		{
			"bufferView":13,
			"componentType":5126,
			"count":30,
			"type":"VEC3"
		},
		{
			"bufferView":14,
			"componentType":5126,
			"count":30,
			"type":"VEC2"
		},
		{
			"bufferView":15,
			"componentType":5123,
			"count":120,
			"type":"SCALAR"
		},
		{
			"bufferView":16,
			"componentType":5126,
			"count":430,
			"max":[
				0.3711149990558624,
				0.5385609865188599,
				-7.007778167724609
			],
			"min":[
				-0.3711149990558624,
				0.3221929967403412,
				-7.346476078033447
			],
			"type":"VEC3"
		},
		{
			"bufferView":17,
			"componentType":5126,
			"count":430,
			"type":"VEC3"
		},
		{
			"bufferView":18,
			"componentType":5126,
			"count":430,
			"type":"VEC2"
		},
		{
			"bufferView":19,
			"componentType":5123,
			"count":1428,
			"type":"SCALAR"
		},
		{
			"bufferView":20,
			"componentType":5126,
			"count":2114,
			"max":[
				2.667819023132324,
				0.5510269999504089,
				-3.3897030353546143
			],
			"min":[
				-2.667818069458008,
				-0.28771600127220154,
				-6.722202777862549
			],
			"type":"VEC3"
		},
		{
			"bufferView":21,
			"componentType":5126,
			"count":2114,
			"type":"VEC3"
		},
		{
			"bufferView":22,
			"componentType":5126,
			"count":2114,
			"type":"VEC2"
		},
		{
			"bufferView":23,
			"componentType":5123,
			"count":11646,
			"type":"SCALAR"
		},
		{
			"bufferView":24,
			"componentType":5126,
			"count":939,
			"max":[
				0.7206479907035828,
				0.7582859992980957,
				-0.008977999910712242
			],
			"min":[
				-0.7206479907035828,
				-0.439985990524292,
				-7.707339763641357
			],
			"type":"VEC3"
		},
		{
			"bufferView":25,
			"componentType":5126,
			"count":939,
			"type":"VEC3"
		},
		{
			"bufferView":26,
			"componentType":5126,
			"count":939,
			"type":"VEC2"
		},
		{
			"bufferView":27,
			"componentType":5123,
			"count":4482,
			"type":"SCALAR"
		},
		{
			"bufferView":28,
			"componentType":5126,
			"count":1273,
			"max":[
				1.2683360576629639,
				0.7395600080490112,
				-3.6436519622802734
			],
			"min":[
				-1.2683360576629639,
				-1.1108050346374512,
				-6.937445163726807
			],
			"type":"VEC3"
		},
		{
			"bufferView":29,
			"componentType":5126,
			"count":1273,
			"type":"VEC3"
		},
		{
			"bufferView":30,
			"componentType":5126,
			"count":1273,
			"type":"VEC2"
		},
		{
			"bufferView":31,
			"componentType":5123,
			"count":5712,
			"type":"SCALAR"
		},
		{
			"bufferView":32,
			"componentType":5126,
			"count":1563,
			"max":[
				0.8303710222244263,
				0.6059610247612,
				-0.3355790078639984
			],
			"min":[
				-0.8303710222244263,
				-0.3490700125694275,
				-6.354608058929443
			],
			"type":"VEC3"
		},
		{
			"bufferView":33,
			"componentType":5126,
			"count":1563,
			"type":"VEC3"
		},
		{
			"bufferView":34,
			"componentType":5126,
			"count":1563,
			"type":"VEC2"
		},
		{
			"bufferView":35,
			"componentType":5123,
			"count":6918,
			"type":"SCALAR"
		},
		{
			"bufferView":36,
			"componentType":5126,
			"count":681,
			"max":[
				0.5509009957313538,
				0.44397199153900146,
				-5.068668842315674
			],
			"min":[
				-2.286345958709717,
				-0.2637380063533783,
				-6.948037147521973
			],
			"type":"VEC3"
		},
		{
			"bufferView":37,
			"componentType":5126,
			"count":681,
			"type":"VEC3"
		},
		{
			"bufferView":38,
			"componentType":5126,
			"count":681,
			"type":"VEC2"
		},
		{
			"bufferView":39,
			"componentType":5123,
			"count":3264,
			"type":"SCALAR"
		},
		{
			"bufferView":40,
			"componentType":5126,
			"count":724,
			"max":[
				0.755141019821167,
				0.6095529794692993,
				-4.013068199157715
			],
			"min":[
				-0.755141019821167,
				-0.44434699416160583,
				-7.707339763641357
			],
			"type":"VEC3"
		},
		{
			"bufferView":41,
			"componentType":5126,
			"count":724,
			"type":"VEC3"
		},
		{
			"bufferView":42,
			"componentType":5126,
			"count":724,
			"type":"VEC2"
		},
		{
			"bufferView":43,
			"componentType":5123,
			"count":3480,
			"type":"SCALAR"
		},
		{
			"bufferView":44,
			"componentType":5126,
			"count":1921,
			"max":[
				0.6370760202407837,
				0.686040997505188,
				-7.11647891998291
			],
			"min":[
				-0.6370760202407837,
				-0.09035900235176086,
				-8.216277122497559
			],
			"type":"VEC3"
		},
		{
			"bufferView":45,
			"componentType":5126,
			"count":1921,
			"type":"VEC3"
		},
		{
			"bufferView":46,
			"componentType":5126,
			"count":1921,
			"type":"VEC2"
		},
		{
			"bufferView":47,
			"componentType":5123,
			"count":9108,
			"type":"SCALAR"
		},
		{
			"bufferView":48,
			"componentType":5126,
			"count":1500,
			"max":[
				0.7128679752349854,
				0.27607300877571106,
				-6.79261589050293
			],
			"min":[
				-0.7128679752349854,
				-0.6088830232620239,
				-7.980518817901611
			],
			"type":"VEC3"
		},
		{
			"bufferView":49,
			"componentType":5126,
			"count":1500,
			"type":"VEC3"
		},
		{
			"bufferView":50,
			"componentType":5126,
			"count":1500,
			"type":"VEC2"
		},
		{
			"bufferView":51,
			"componentType":5123,
			"count":6720,
			"type":"SCALAR"
		},
		{
			"bufferView":52,
			"componentType":5126,
			"count":4206,
			"max":[
				0.864874005317688,
				1.3471070528030396,
				-5.345477104187012
			],
			"min":[
				-0.864874005317688,
				0.03922500088810921,
				-7.8950700759887695
			],
			"type":"VEC3"
		},
		{
			"bufferView":53,
			"componentType":5126,
			"count":4206,
			"type":"VEC3"
		},
		{
			"bufferView":54,
			"componentType":5126,
			"count":4206,
			"type":"VEC2"
		},
		{
			"bufferView":55,
			"componentType":5123,
			"count":21816,
			"type":"SCALAR"
		}
	],
	"bufferViews":[
		{
			"buffer":0,
			"byteLength":46068,
			"byteOffset":0,
			"target":34962
		},
		{
			"buffer":0,
			"byteLength":46068,
			"byteOffset":46068,
			"target":34962
		},
		{
			"buffer":0,
			"byteLength":30712,
			"byteOffset":92136,
			"target":34962
		},
		{
			"buffer":0,
			"byteLength":37914,
			"byteOffset":122848,
			"target":34963
		},
		{
			"buffer":0,
			"byteLength":9120,
			"byteOffset":160764,
			"target":34962
		},
		{
			"buffer":0,
			"byteLength":9120,
			"byteOffset":169884,
			"target":34962
		},
		{
			"buffer":0,
			"byteLength":6080,
			"byteOffset":179004,
			"target":34962
		},
		{
			"buffer":0,
			"byteLength":7872,
			"byteOffset":185084,
			"target":34963
		},
		{
			"buffer":0,
			"byteLength":1320,
			"byteOffset":192956,
			"target":34962
		},
		{
			"buffer":0,
			"byteLength":1320,
			"byteOffset":194276,
			"target":34962
		},
		{
			"buffer":0,
			"byteLength":880,
			"byteOffset":195596,
			"target":34962
		},
		{
			"buffer":0,
			"byteLength":1008,
			"byteOffset":196476,
			"target":34963
		},
		{
			"buffer":0,
			"byteLength":360,
			"byteOffset":197484,
			"target":34962
		},
		{
			"buffer":0,
			"byteLength":360,
			"byteOffset":197844,
			"target":34962
		},
		{
			"buffer":0,
			"byteLength":240,
			"byteOffset":198204,
			"target":34962
		},
		{
			"buffer":0,
			"byteLength":240,
			"byteOffset":198444,
			"target":34963
		},
		{
			"buffer":0,
			"byteLength":5160,
			"byteOffset":198684,
			"target":34962
		},
		{
			"buffer":0,
			"byteLength":5160,
			"byteOffset":203844,
			"target":34962
		},
		{
			"buffer":0,
			"byteLength":3440,
			"byteOffset":209004,
			"target":34962
		},
		{
			"buffer":0,
			"byteLength":2856,
			"byteOffset":212444,
			"target":34963
		},
		{
			"buffer":0,
			"byteLength":25368,
			"byteOffset":215300,
			"target":34962
		},
		{
			"buffer":0,
			"byteLength":25368,
			"byteOffset":240668,
			"target":34962
		},
		{
			"buffer":0,
			"byteLength":16912,
			"byteOffset":266036,
			"target":34962
		},
		{
			"buffer":0,
			"byteLength":23292,
			"byteOffset":282948,
			"target":34963
		},
		{
			"buffer":0,
			"byteLength":11268,
			"byteOffset":306240,
			"target":34962
		},
		{
			"buffer":0,
			"byteLength":11268,
			"byteOffset":317508,
			"target":34962
		},
		{
			"buffer":0,
			"byteLength":7512,
			"byteOffset":328776,
			"target":34962
		},
		{
			"buffer":0,
			"byteLength":8964,
			"byteOffset":336288,
			"target":34963
		},
		{
			"buffer":0,
			"byteLength":15276,
			"byteOffset":345252,
			"target":34962
		},
		{
			"buffer":0,
			"byteLength":15276,
			"byteOffset":360528,
			"target":34962
		},
		{
			"buffer":0,
			"byteLength":10184,
			"byteOffset":375804,
			"target":34962
		},
		{
			"buffer":0,
			"byteLength":11424,
			"byteOffset":385988,
			"target":34963
		},
		{
			"buffer":0,
			"byteLength":18756,
			"byteOffset":397412,
			"target":34962
		},
		{
			"buffer":0,
			"byteLength":18756,
			"byteOffset":416168,
			"target":34962
		},
		{
			"buffer":0,
			"byteLength":12504,
			"byteOffset":434924,
			"target":34962
		},
		{
			"buffer":0,
			"byteLength":13836,
			"byteOffset":447428,
			"target":34963
		},
		{
			"buffer":0,
			"byteLength":8172,
			"byteOffset":461264,
			"target":34962
		},
		{
			"buffer":0,
			"byteLength":8172,
			"byteOffset":469436,
			"target":34962
		},
		{
			"buffer":0,
			"byteLength":5448,
			"byteOffset":477608,
			"target":34962
		},
		{
			"buffer":0,
			"byteLength":6528,
			"byteOffset":483056,
			"target":34963
		},
		{
			"buffer":0,
			"byteLength":8688,
			"byteOffset":489584,
			"target":34962
		},
		{
			"buffer":0,
			"byteLength":8688,
			"byteOffset":498272,
			"target":34962
		},
		{
			"buffer":0,
			"byteLength":5792,
			"byteOffset":506960,
			"target":34962
		},
		{
			"buffer":0,
			"byteLength":6960,
			"byteOffset":512752,
			"target":34963
		},
		{
			"buffer":0,
			"byteLength":23052,
			"byteOffset":519712,
			"target":34962
		},
		{
			"buffer":0,
			"byteLength":23052,
			"byteOffset":542764,
			"target":34962
		},
		{
			"buffer":0,
			"byteLength":15368,
			"byteOffset":565816,
			"target":34962
		},
		{
			"buffer":0,
			"byteLength":18216,
			"byteOffset":581184,
			"target":34963
		},
		{
			"buffer":0,
			"byteLength":18000,
			"byteOffset":599400,
			"target":34962
		},
		{
			"buffer":0,
			"byteLength":18000,
			"byteOffset":617400,
			"target":34962
		},
		{
			"buffer":0,
			"byteLength":12000,
			"byteOffset":635400,
			"target":34962
		},
		{
			"buffer":0,
			"byteLength":13440,
			"byteOffset":647400,
			"target":34963
		},
		{
			"buffer":0,
			"byteLength":50472,
			"byteOffset":660840,
			"target":34962
		},
		{
			"buffer":0,
			"byteLength":50472,
			"byteOffset":711312,
			"target":34962
		},
		{
			"buffer":0,
			"byteLength":33648,
			"byteOffset":761784,
			"target":34962
		},
		{
			"buffer":0,
			"byteLength":43632,
			"byteOffset":795432,
			"target":34963
		}
	],
	"samplers":[
		{
			"magFilter":9729,
			"minFilter":9987
		}
	],
	"buffers":[
		{
			"byteLength":839064,
			"uri":"YukariGLTF.bin"
		}
	]
}
